<svg width="780" height="551" viewBox="0 0 780 551" fill="none">
<g id="Data Science 1" clip-path="url(#clip0_276_1257)">
<path id="Vector" d="M753.671 464H468.838C462.087 463.992 455.614 461.307 450.841 456.533C446.067 451.76 443.382 445.287 443.374 438.536V25.4639C443.382 18.7128 446.067 12.2404 450.841 7.46661C455.614 2.69287 462.087 0.00762002 468.838 0H753.671C760.422 0.00762267 766.895 2.69287 771.668 7.46661C776.442 12.2404 779.127 18.7128 779.135 25.4639V438.536C779.127 445.287 776.442 451.76 771.668 456.533C766.895 461.307 760.422 463.992 753.671 464Z" fill="#E6E6E6"/>
<path id="Vector_2" d="M754.173 447.754H468.337C466.255 447.751 464.26 446.923 462.789 445.452C461.317 443.98 460.489 441.985 460.487 439.904V24.0961C460.489 22.015 461.317 20.0198 462.789 18.5483C464.26 17.0767 466.255 16.249 468.337 16.2466H754.173C756.254 16.249 758.249 17.0767 759.72 18.5483C761.192 20.0198 762.02 22.015 762.022 24.0961V439.904C762.02 441.985 761.192 443.98 759.72 445.452C758.249 446.923 756.254 447.751 754.173 447.754Z" fill="white"/>
<path id="Vector_3" d="M610.171 9.96472C611.368 9.96472 612.338 8.99488 612.338 7.79852C612.338 6.60216 611.368 5.63232 610.171 5.63232C608.975 5.63232 608.005 6.60216 608.005 7.79852C608.005 8.99488 608.975 9.96472 610.171 9.96472Z" fill="white"/>
<path id="Vector_4" d="M726.465 290.05H496.044C495.852 290.05 495.669 289.974 495.534 289.839C495.399 289.703 495.323 289.52 495.323 289.329V178.888C495.323 178.696 495.398 178.513 495.534 178.378C495.669 178.242 495.852 178.167 496.044 178.167C496.235 178.167 496.418 178.242 496.554 178.378C496.689 178.513 496.765 178.696 496.765 178.888V288.608H726.465C726.656 288.608 726.839 288.685 726.973 288.82C727.108 288.955 727.184 289.138 727.184 289.329C727.184 289.52 727.108 289.703 726.973 289.838C726.839 289.973 726.656 290.049 726.465 290.05Z" fill="#3F3D56"/>
<g id="Bar">
<path id="Bar_2" d="M545.275 282.118H524.317C523.749 282.117 523.205 281.891 522.804 281.49C522.403 281.089 522.177 280.545 522.176 279.977V251.087C522.177 250.519 522.403 249.975 522.804 249.574C523.205 249.173 523.749 248.947 524.317 248.946H545.275C545.842 248.947 546.386 249.173 546.788 249.574C547.189 249.975 547.415 250.519 547.415 251.087V279.977C547.415 280.545 547.189 281.089 546.788 281.49C546.386 281.891 545.842 282.117 545.275 282.118Z" fill="#A134CB"/>
</g>
<g id="Bar_3">
<path id="Bar_4" d="M583.494 282.118H562.536C561.969 282.117 561.425 281.891 561.023 281.49C560.622 281.089 560.396 280.545 560.396 279.977V223.684C560.396 223.117 560.622 222.573 561.023 222.172C561.425 221.77 561.969 221.545 562.536 221.544H583.494C584.061 221.545 584.605 221.77 585.007 222.172C585.408 222.573 585.634 223.117 585.635 223.684V279.977C585.634 280.545 585.408 281.089 585.007 281.49C584.605 281.891 584.061 282.117 583.494 282.118Z" fill="#A134CB"/>
</g>
<g id="Bar_5">
<path id="Bar_6" d="M621.713 282.118H600.755C600.188 282.117 599.643 281.891 599.242 281.49C598.841 281.089 598.615 280.545 598.615 279.977V251.087C598.615 250.519 598.841 249.975 599.242 249.574C599.643 249.173 600.188 248.947 600.755 248.946H621.713C622.28 248.947 622.824 249.173 623.226 249.574C623.627 249.975 623.853 250.519 623.853 251.087V279.977C623.853 280.545 623.627 281.089 623.226 281.49C622.824 281.891 622.28 282.117 621.713 282.118Z" fill="#A134CB"/>
</g>
<g id="Bar_7">
<path id="Bar_8" d="M659.932 282.117H638.974C638.42 282.129 637.883 281.921 637.482 281.538C637.08 281.155 636.847 280.628 636.833 280.074V212.771C636.847 212.216 637.08 211.69 637.482 211.307C637.883 210.923 638.42 210.715 638.974 210.727H659.932C660.486 210.715 661.023 210.923 661.424 211.307C661.826 211.69 662.059 212.216 662.073 212.771V280.074C662.059 280.628 661.826 281.155 661.424 281.538C661.023 281.921 660.486 282.129 659.932 282.117Z" fill="#A134CB"/>
</g>
<g id="Bar_9">
<path id="Bar_10" d="M698.151 282.117H677.193C676.626 282.117 676.082 281.891 675.68 281.49C675.279 281.088 675.053 280.544 675.053 279.977V193.397C675.053 192.83 675.279 192.286 675.68 191.884C676.082 191.483 676.626 191.257 677.193 191.257H698.151C698.719 191.257 699.263 191.483 699.664 191.884C700.065 192.286 700.291 192.83 700.292 193.397V279.977C700.291 280.544 700.065 281.088 699.664 281.49C699.263 281.891 698.719 282.117 698.151 282.117Z" fill="#A134CB"/>
</g>
<g id="Dot">
<path id="Dot_2" d="M534.796 240.293C537.186 240.293 539.123 238.356 539.123 235.966C539.123 233.577 537.186 231.64 534.796 231.64C532.406 231.64 530.469 233.577 530.469 235.966C530.469 238.356 532.406 240.293 534.796 240.293Z" fill="#3F3D56"/>
</g>
<g id="Dot_3">
<path id="Dot_4" d="M573.015 212.169C575.405 212.169 577.342 210.232 577.342 207.843C577.342 205.453 575.405 203.516 573.015 203.516C570.625 203.516 568.688 205.453 568.688 207.843C568.688 210.232 570.625 212.169 573.015 212.169Z" fill="#3F3D56"/>
</g>
<g id="Dot_5">
<path id="Dot_6" d="M611.234 240.293C613.623 240.293 615.561 238.356 615.561 235.966C615.561 233.577 613.623 231.64 611.234 231.64C608.844 231.64 606.907 233.577 606.907 235.966C606.907 238.356 608.844 240.293 611.234 240.293Z" fill="#3F3D56"/>
</g>
<g id="Dot_7">
<path id="Dot_8" d="M649.453 198.468C651.843 198.468 653.78 196.531 653.78 194.142C653.78 191.752 651.843 189.815 649.453 189.815C647.064 189.815 645.126 191.752 645.126 194.142C645.126 196.531 647.064 198.468 649.453 198.468Z" fill="#3F3D56"/>
</g>
<g id="Dot_9">
<path id="Dot_10" d="M687.672 182.604C690.062 182.604 691.999 180.666 691.999 178.277C691.999 175.887 690.062 173.95 687.672 173.95C685.283 173.95 683.345 175.887 683.345 178.277C683.345 180.666 685.283 182.604 687.672 182.604Z" fill="#3F3D56"/>
</g>
<g id="Line">
<path id="Line_2" d="M611.325 236.935L573.015 208.241L535.228 236.543L534.363 235.389L573.015 206.438L611.143 234.997L649.031 193.534L649.184 193.472L687.403 178.073L687.942 179.411L649.875 194.749L611.325 236.935Z" fill="#3F3D56"/>
</g>
<path id="Vector_5" d="M274.628 224.485C273.166 224.484 271.721 224.805 270.396 225.424C269.071 226.043 267.899 226.946 266.962 228.069L222.152 226.668L220.399 219.114L197.209 230.43L200.209 251.119L268.499 242.375C269.756 243.352 271.227 244.014 272.792 244.307C274.356 244.6 275.967 244.515 277.492 244.06C279.016 243.604 280.41 242.792 281.558 241.689C282.705 240.587 283.573 239.226 284.089 237.721C284.604 236.216 284.753 234.609 284.523 233.034C284.292 231.46 283.69 229.963 282.764 228.669C281.839 227.374 280.618 226.319 279.203 225.592C277.788 224.864 276.219 224.485 274.628 224.485Z" fill="#9F616A"/>
<path id="Vector_6" d="M191.627 537.085H203.887L209.72 489.797L191.625 489.798L191.627 537.085Z" fill="#9F616A"/>
<path id="Vector_7" d="M188.5 533.083L212.644 533.082H212.645C216.726 533.082 220.639 534.703 223.525 537.588C226.41 540.474 228.031 544.387 228.032 548.468V548.968L188.501 548.969L188.5 533.083Z" fill="#2F2E41"/>
<path id="Vector_8" d="M145.367 527.336L157.145 530.74L175.877 486.93L158.494 481.907L145.367 527.336Z" fill="#9F616A"/>
<path id="Vector_9" d="M143.474 522.623L166.669 529.325C170.589 530.458 173.899 533.102 175.87 536.675C177.841 540.249 178.312 544.458 177.179 548.379L177.04 548.859L139.063 537.885L143.474 522.623Z" fill="#2F2E41"/>
<path id="Vector_10" d="M176.572 331.748C176.572 331.748 172.211 343.914 179.09 360.514L184.399 428.882L185.969 526.114H208.32L221.846 426.992L229.969 337.114L176.572 331.748Z" fill="#2F2E41"/>
<path id="Vector_11" d="M164.001 331.748C164.001 331.748 159.64 343.914 166.519 360.514L171.828 428.882L145.399 521.486H167.749L209.275 426.992L217.399 337.114L164.001 331.748Z" fill="#2F2E41"/>
<path id="Vector_12" d="M232.852 210.121L227.875 186.994L202.531 172.604L197.391 179.799C197.391 179.799 161.127 189.329 165.513 230.971C169.899 272.614 167.899 292.614 167.899 292.614L157.899 338.614C157.899 338.614 160.977 339.143 231.628 351.485L234.628 251.485L232.852 210.121Z" fill="#CBCBCB"/>
<path id="Vector_13" opacity="0.1" d="M208.266 435.17L185.251 481.659V494.985L208.266 435.17Z" fill="black"/>
<g id="Head">
<path id="Vector_14" d="M229.567 174.938C243.132 174.938 254.128 163.942 254.128 150.377C254.128 136.812 243.132 125.816 229.567 125.816C216.002 125.816 205.006 136.812 205.006 150.377C205.006 163.942 216.002 174.938 229.567 174.938Z" fill="#9F616A"/>
<path id="Vector_15" d="M203.085 158.145C205.427 164.417 214.288 165.286 217.414 159.366C217.657 158.906 217.855 158.425 218.005 157.927C218.861 155.083 218.323 151.951 219.904 149.232C220.289 148.552 220.841 147.981 221.509 147.574C226.765 144.474 231.939 154.311 236.826 151.559C239.823 149.871 239.182 144.971 241.849 142.799C245.369 139.932 250.454 144.202 254.967 143.714C259.989 143.172 262.365 136.81 261.274 131.879C259.942 125.864 255.237 120.983 249.716 118.252C244.194 115.521 237.921 114.696 231.763 114.543C224.766 114.369 217.445 115.112 211.529 118.852C204.335 123.399 200.282 131.866 199.384 140.33C198.839 145.478 201.173 153.024 203.085 158.145Z" fill="#2F2E41"/>
</g>
<path id="Vector_16" d="M323.44 326.732C323.476 326.733 323.512 326.732 323.549 326.73C342.053 325.762 359.494 317.782 372.325 304.413C385.156 291.044 392.414 273.29 392.621 254.762C392.829 236.233 385.972 218.321 373.444 204.667C360.916 191.014 343.658 182.646 325.179 181.263C324.951 181.245 324.721 181.274 324.505 181.35C324.288 181.425 324.089 181.544 323.921 181.699C323.753 181.852 323.619 182.038 323.526 182.245C323.434 182.453 323.385 182.677 323.383 182.904L321.79 325.049C321.786 325.491 321.957 325.916 322.267 326.232C322.576 326.547 322.998 326.727 323.44 326.732Z" fill="#3F3D56"/>
<path id="Vector_17" d="M266.279 204.768C266.847 204.775 267.389 205.006 267.786 205.411L316.721 255.455C316.917 255.655 317.073 255.893 317.177 256.153C317.282 256.414 317.333 256.693 317.33 256.973L316.567 324.99C316.565 325.282 316.502 325.57 316.383 325.837C316.264 326.103 316.092 326.342 315.876 326.539C315.659 326.738 315.404 326.89 315.127 326.987C314.849 327.083 314.554 327.122 314.261 327.1C300.655 326.081 287.603 321.289 276.571 313.261C265.539 305.233 256.964 294.288 251.81 281.655C246.656 269.022 245.127 255.202 247.395 241.748C249.663 228.294 255.638 215.739 264.649 205.494C264.844 205.273 265.082 205.095 265.349 204.97C265.616 204.845 265.906 204.776 266.2 204.768C266.226 204.768 266.253 204.767 266.279 204.768Z" fill="#E6E6E6"/>
<g id="Pie">
<path id="Vector_18" d="M316.039 180.682C316.585 180.688 317.109 180.902 317.503 181.28C317.715 181.482 317.883 181.725 317.996 181.994C318.109 182.264 318.165 182.554 318.16 182.846L317.473 244.215C317.468 244.637 317.338 245.049 317.099 245.398C316.86 245.746 316.524 246.017 316.131 246.174C315.739 246.331 315.309 246.369 314.896 246.282C314.482 246.195 314.104 245.987 313.808 245.685L271.107 202.015C270.91 201.814 270.755 201.576 270.651 201.315C270.546 201.054 270.494 200.775 270.497 200.494C270.501 200.212 270.559 199.935 270.67 199.676C270.781 199.418 270.941 199.184 271.143 198.987C271.168 198.962 271.195 198.937 271.222 198.914C283.641 187.982 299.385 181.559 315.906 180.684C315.95 180.682 315.995 180.681 316.039 180.682Z" fill="#A134CB"/>
</g>
<g id="Hand">
<path id="Vector_19" d="M249.628 252.485C248.166 252.484 246.721 252.805 245.396 253.424C244.071 254.043 242.899 254.946 241.962 256.069L197.152 254.668L195.399 247.114L172.209 258.43L175.209 279.119L243.499 270.375C244.756 271.352 246.227 272.014 247.792 272.307C249.356 272.6 250.967 272.515 252.492 272.06C254.016 271.604 255.41 270.792 256.558 269.689C257.705 268.587 258.573 267.226 259.089 265.721C259.604 264.216 259.753 262.609 259.523 261.034C259.292 259.46 258.69 257.963 257.764 256.669C256.839 255.374 255.618 254.319 254.203 253.592C252.788 252.864 251.219 252.485 249.628 252.485Z" fill="#9F616A"/>
</g>
<path id="Vector_20" d="M168.431 266.951L167.185 205.318C167.142 203.162 167.526 201.018 168.316 199.01C169.106 197.003 170.287 195.172 171.789 193.624C173.291 192.075 175.085 190.84 177.067 189.99C179.05 189.139 181.181 188.69 183.338 188.668C185.495 188.646 187.635 189.052 189.635 189.862C191.634 190.673 193.453 191.872 194.986 193.389C196.519 194.907 197.736 196.713 198.566 198.704C199.397 200.695 199.825 202.831 199.825 204.988V250.031L168.431 266.951Z" fill="#CBCBCB"/>
<path id="Vector_21" d="M382 550H1C0.734784 550 0.480429 549.895 0.292892 549.707C0.105356 549.52 0 549.265 0 549C0 548.735 0.105356 548.48 0.292892 548.293C0.480429 548.105 0.734784 548 1 548H382C382.265 548 382.52 548.105 382.707 548.293C382.895 548.48 383 548.735 383 549C383 549.265 382.895 549.52 382.707 549.707C382.52 549.895 382.265 550 382 550Z" fill="#CBCBCB"/>
</g>
<defs>
<clipPath id="clip0_276_1257">
<rect width="779.135" height="550.241" fill="white"/>
</clipPath>
</defs>
</svg>
