<svg width="856" height="892" viewBox="0 0 856 892" fill="none" xmlns="http://www.w3.org/2000/svg">
<g id="Intermission 1" clip-path="url(#clip0_266_67)">
<g id="Body">
<path id="Vector" d="M811.205 831.192C811.205 864.774 629.613 892 405.602 892C181.592 892 0 864.774 0 831.192C0 807.418 91.025 786.822 223.683 776.831C278.387 772.698 340.196 770.384 405.602 770.384C432.49 770.384 458.763 770.776 484.172 771.521C670.579 777.014 811.205 801.638 811.205 831.192Z" fill="#3F3D56"/>
<path id="Vector_2" opacity="0.1" d="M353.267 843.615C439.257 843.615 508.966 835.126 508.966 824.654C508.966 814.181 439.257 805.692 353.267 805.692C267.276 805.692 197.568 814.181 197.568 824.654C197.568 835.126 267.276 843.615 353.267 843.615Z" fill="black"/>
<path id="Vector_3" d="M352.613 838.384C433.906 838.384 499.807 768.127 499.807 681.46C499.807 594.793 433.906 524.536 352.613 524.536C271.319 524.536 205.418 594.793 205.418 681.46C205.418 768.127 271.319 838.384 352.613 838.384Z" fill="#3F3D56"/>
<path id="Vector_4" d="M399.061 774.307H307.473V858H399.061V774.307Z" fill="#A134CB"/>
<path id="Vector_5" d="M518.779 794.577L513.545 823.347L547.563 828.577L569.806 815.5L568.498 794.577H518.779Z" fill="#575A89"/>
<path id="Vector_6" d="M347.379 254.496C347.379 254.496 344.762 284.573 338.22 285.881C331.678 287.188 352.613 339.496 352.613 339.496H384.014L408.874 332.958L397.098 304.189C397.098 304.189 381.397 283.265 393.173 266.265C404.948 249.265 347.379 254.496 347.379 254.496Z" fill="#A0616A"/>
<path id="Vector_7" d="M281.959 484.651C281.959 484.651 247.941 550.036 275.417 563.113C302.893 576.19 309.435 574.883 309.435 578.806C309.435 582.729 304.202 581.421 306.819 587.96C309.435 594.498 301.585 620.652 309.435 636.344C317.286 652.037 314.669 663.806 314.669 663.806C314.669 663.806 314.669 665.114 317.286 670.345C319.903 675.575 321.211 679.499 319.903 682.114C318.594 684.729 310.744 701.729 318.594 705.653C326.445 709.576 367.005 712.191 370.93 705.653C374.855 699.114 367.005 695.191 370.93 691.268C374.855 687.345 377.472 686.037 374.855 683.422C372.238 680.806 369.622 648.114 369.622 648.114C369.622 648.114 376.164 610.19 373.547 604.96C370.93 599.729 367.005 594.498 369.622 590.575C372.238 586.652 374.855 587.96 376.164 582.729C377.472 577.498 380.089 565.729 380.089 565.729L394.481 564.421L428.499 570.959C428.499 570.959 466.443 612.806 508.312 625.883C508.312 625.883 520.087 637.652 524.012 637.652C527.937 637.652 527.937 637.652 526.629 640.268C525.321 642.883 521.396 642.883 524.012 645.498C526.629 648.114 530.554 644.191 527.937 648.114C525.321 652.037 522.704 652.037 525.321 654.652C527.937 657.268 524.012 671.652 524.012 672.96C524.012 674.268 512.237 797.192 516.162 799.807C520.087 802.422 575.04 810.269 578.965 799.807C582.89 789.345 576.348 776.268 576.348 776.268C576.348 776.268 595.974 619.344 590.74 608.883C585.507 598.421 567.189 551.344 469.06 521.267C469.06 521.267 441.583 516.036 441.583 512.113C441.583 508.19 438.967 483.344 433.733 482.036C428.499 480.728 398.406 479.42 398.406 479.42L360.463 491.19L308.127 482.036L281.959 484.651Z" fill="#2F2E41"/>
<path id="Vector_8" d="M327.753 704.345L321.211 727.884C321.211 727.884 315.977 765.807 322.519 774.961C327.658 782.151 336.833 790.955 353.848 792.5C358.617 792.937 363.392 791.734 367.384 789.091C371.376 786.447 374.345 782.521 375.801 777.961C375.997 777.416 376.118 776.846 376.164 776.268C376.164 773.653 372.239 742.268 372.239 742.268L365.697 709.576L364.388 700.422L327.753 704.345Z" fill="#2F2E41"/>
<path id="Vector_9" d="M518.779 816.807C518.779 816.807 512.237 810.269 510.928 816.807C509.62 823.346 504.386 850.807 513.545 852.115C522.704 853.423 610.366 866.5 619.525 861.269C628.684 856.038 645.693 848.192 635.226 844.269C624.759 840.346 594.666 828.576 594.666 828.576C594.666 828.576 577.656 806.346 575.04 805.038C572.423 803.73 558.031 806.346 551.489 811.576C544.947 816.807 518.779 816.807 518.779 816.807Z" fill="#2F2E41"/>
<path id="Vector_10" d="M374.855 332.958L359.155 315.958L341.751 281.958C341.751 281.958 329.061 278.035 326.445 284.573C323.828 291.112 276.726 312.035 276.726 312.035C276.726 312.035 288.501 421.882 283.268 432.343C278.034 442.805 268.875 484.651 276.726 488.574C284.576 492.497 321.211 488.574 332.987 493.805C344.762 499.036 378.78 499.036 387.939 492.497C397.098 485.959 399.715 480.728 408.874 484.651C416.671 487.991 434.898 373.809 440.146 339.783C440.588 336.925 440.221 334.001 439.086 331.341C437.951 328.681 436.094 326.391 433.725 324.732C421.985 316.501 400.841 302.318 397.098 304.189C391.864 306.804 374.855 332.958 374.855 332.958Z" fill="#575A89"/>
</g>
<g id="Left Hand">
<path id="Vector_11" d="M428.499 445.42L457.284 437.574C457.284 437.574 462.518 474.19 467.751 474.19C472.985 474.19 449.434 495.113 437.658 492.498C425.883 489.882 408.874 480.728 407.565 474.19C406.257 467.651 419.341 440.19 419.341 440.19L428.499 445.42Z" fill="#575A89"/>
<path id="Vector_12" d="M431.116 327.728C434.189 328.495 436.952 330.184 439.037 332.568C441.121 334.951 442.425 337.915 442.775 341.061L453.359 436.267C453.359 436.267 427.191 492.498 414.107 454.574C401.023 416.651 431.116 327.728 431.116 327.728Z" fill="#575A89"/>
<path id="Vector_13" d="M442.238 461.767L456.665 439.666L465.789 476.152L442.238 486.614V461.767Z" fill="#575A89"/>
</g>
<g id="Book">
<path id="Vector_14" d="M381.397 352.574L385.322 344.728C385.322 344.728 442.892 361.728 454.667 377.42C454.667 377.42 483.452 359.112 499.153 361.728L514.854 364.343L466.443 407.497L404.948 402.266L381.397 352.574Z" fill="#F2F2F2"/>
<path id="Vector_15" d="M378.78 344.728L325.136 419.266L402.332 457.19C402.332 457.19 409.548 461.113 415.099 457.19L466.443 433.651L514.854 364.343L466.443 389.189C466.443 389.189 461.209 378.728 450.742 383.959L378.78 344.728Z" fill="#A134CB"/>
</g>
<path id="Vector_16" d="M461.209 476.805L471.676 449.344C471.676 449.344 495.228 419.266 482.144 404.882C469.06 390.497 454.667 446.728 454.667 446.728L461.209 476.805Z" fill="#A0616A"/>
<g id="Right Hand">
<path id="Vector_17" d="M340.441 472.423L363.281 453.916C363.281 453.916 398.752 439.708 394.654 420.704C390.557 401.7 349.88 443.124 349.88 443.124L340.441 472.423Z" fill="#A0616A"/>
<path id="Vector_18" opacity="0.1" d="M283.922 340.151H282.613C282.613 340.151 262.333 315.958 258.408 348.651C254.483 381.343 241.399 489.882 275.417 493.805C309.436 497.728 333.641 477.459 333.641 477.459C333.641 477.459 358.5 439.536 349.342 439.536C344.91 439.536 332.858 437.547 321.865 438.228C310.138 438.955 299.601 442.257 300.277 438.882C301.585 432.343 320.557 349.304 283.922 340.151Z" fill="black"/>
<path id="Vector_19" d="M281.959 314.651L276.726 312.035C276.726 312.035 255.791 315.958 251.866 348.651C247.941 381.343 234.857 489.882 268.875 493.805C302.894 497.729 348.687 488.575 348.687 488.575C348.687 488.575 357.846 438.882 348.687 438.882C339.529 438.882 292.426 445.421 293.735 438.882C295.043 432.344 318.594 323.804 281.959 314.651Z" fill="#575A89"/>
</g>
<g id="Head">
<path id="Vector_20" opacity="0.1" d="M347.379 254.496C347.379 254.496 344.762 284.573 338.22 285.881C331.678 287.188 352.613 339.496 352.613 339.496H384.014L408.874 332.958L397.098 304.189C397.098 304.189 381.397 283.265 393.173 266.265C404.948 249.265 347.379 254.496 347.379 254.496Z" fill="black"/>
<path id="Vector_21" d="M378.78 281.958C401.181 281.958 419.341 263.808 419.341 241.419C419.341 219.03 401.181 200.88 378.78 200.88C356.38 200.88 338.22 219.03 338.22 241.419C338.22 263.808 356.38 281.958 378.78 281.958Z" fill="#A0616A"/>
<path id="Vector_22" d="M348.162 258.907C350.92 252.829 350.441 245.739 352.721 239.466C353.942 236.107 355.923 233.076 358.51 230.609C361.097 228.142 364.22 226.306 367.634 225.245C371.049 224.184 374.662 223.927 378.193 224.492C381.723 225.058 385.075 226.432 387.986 228.507C390.919 230.597 393.86 233.534 397.44 233.134C401.296 232.705 404.735 228.406 408.279 229.981C412.208 231.728 411.147 238.765 415.127 240.39C417.222 241.246 419.698 239.929 420.907 238.016C421.963 236.006 422.539 233.779 422.589 231.509C423.138 225.931 423.635 220.028 421.214 214.973C420.196 213.259 419.309 211.471 418.561 209.624C418.137 207.9 417.967 206.122 418.056 204.349C418.034 197.793 417.555 190.955 414.254 185.29C410.591 179.004 403.821 174.984 396.757 173.23C389.693 171.476 382.293 171.745 375.04 172.359C363.051 173.373 350.548 175.548 341.102 182.997C339.818 183.934 338.713 185.094 337.84 186.422C337.011 188 336.425 189.693 336.102 191.446C334.06 199.758 330.998 207.786 326.986 215.347C325.056 218.552 323.478 221.957 322.281 225.502C321.28 229.104 321.347 233.209 323.444 236.304C325.151 238.825 327.88 240.168 330.025 242.229C332.149 244.271 333.143 248.198 335.497 249.744C337.552 251.094 340.013 250.141 342.108 251.571C344.799 253.408 344.993 257.435 348.162 258.907Z" fill="#2F2E41"/>
</g>
<path id="cir" d="M145.851 146.611C165.361 146.611 181.178 130.803 181.178 111.303C181.178 91.803 165.361 75.9951 145.851 75.9951C126.341 75.9951 110.524 91.803 110.524 111.303C110.524 130.803 126.341 146.611 145.851 146.611Z" fill="#F2F2F2"/>
<path id="sq" d="M187.72 374.151H103.982V457.844H187.72V374.151Z" fill="#F2F2F2"/>
<path id="tri" d="M486.723 0L507.918 36.6901L529.111 73.3803H486.723H444.335L465.528 36.6901L486.723 0Z" fill="#F2F2F2"/>
<path id="pi" d="M856 219.993C855.493 235.647 851.679 248.193 844.558 257.633C837.435 267.074 828.974 271.795 819.173 271.796C811.19 271.796 804.194 267.176 798.183 257.936C792.171 248.697 789.165 234.484 789.166 215.298C789.166 211.056 789.267 207.017 789.469 203.18C789.67 199.343 789.923 195.708 790.227 192.274L795.531 142.44H760.523C754.461 205.452 749.485 242.941 745.595 254.907C741.705 266.873 735.112 272.856 725.818 272.857C721.622 272.753 717.619 271.077 714.603 268.161C712.854 266.612 711.471 264.695 710.554 262.547C709.636 260.399 709.208 258.074 709.298 255.74C709.298 251.097 712.961 244.609 720.286 236.276C727.61 227.945 731.677 220.347 732.486 213.48L741.579 142.44H726.879C722.735 142.465 718.656 143.477 714.982 145.394C711.6 146.946 708.658 149.314 706.419 152.286L699.902 161.98H694.598C699.547 146.632 705.635 135.095 712.86 127.369C720.082 119.644 728.392 115.781 737.79 115.781H853.575V142.44H814.475C813.263 154.558 812.328 166.675 811.671 178.793C811.013 190.911 810.685 203.079 810.687 215.298C810.687 223.579 812.606 230.294 816.446 235.443C820.284 240.593 825.083 243.168 830.843 243.168C834.378 243.168 838.091 241.729 841.982 238.851C843.829 237.556 845.375 235.877 846.513 233.929C847.65 231.982 848.354 229.811 848.574 227.567C848.877 225.347 849.105 223.605 849.256 222.341C849.408 221.079 849.484 220.297 849.484 219.993L856 219.993Z" fill="#A134CB"/>
</g>
<defs>
<clipPath id="clip0_266_67">
<rect width="856" height="892" fill="white"/>
</clipPath>
</defs>
</svg>
