<svg width="523" height="482" viewBox="0 0 523 482" fill="none" xmlns="http://www.w3.org/2000/svg">
<g id="Resume">
<g id="Leaf_1">
<path id="Path 438" d="M9.36087 408.951C16.0607 411.306 23.2542 411.895 30.2482 410.664C37.2423 409.432 43.8012 406.421 49.2931 401.919C63.2793 390.183 67.6652 370.855 71.2322 352.953L81.7858 300L59.6913 315.209C43.8011 326.146 27.554 337.435 16.5528 353.276C5.55162 369.118 0.752119 390.745 9.58863 407.887" fill="#E6E6E6"/>
<path id="Path 439" d="M12.7723 476.747C9.99137 456.492 7.1302 435.976 9.08555 415.505C10.8184 397.324 16.367 379.57 27.6632 365.006C33.6591 357.292 40.9551 350.682 49.2231 345.475C51.3786 344.115 53.3629 347.529 51.2167 348.884C36.9104 357.922 25.8448 371.269 19.6154 386.999C12.7355 404.492 11.6307 423.561 12.8158 442.143C13.5321 453.381 15.0543 464.544 16.583 475.695C16.7037 476.199 16.6283 476.73 16.3721 477.181C16.116 477.632 15.6981 477.969 15.203 478.123C14.698 478.259 14.1597 478.191 13.7049 477.933C13.2501 477.674 12.9156 477.247 12.7738 476.744L12.7723 476.747Z" fill="#F2F2F2"/>
</g>
<g id="Leaf_2">
<path id="Path 442" d="M38.1375 434.945C41.0104 439.312 44.96 442.866 49.6057 445.263C54.2514 447.661 59.4365 448.822 64.6614 448.635C78.092 447.998 89.2842 438.631 99.3584 429.735L129.162 403.429L109.438 402.485C95.2529 401.806 80.7017 401.169 67.1909 405.547C53.68 409.925 41.2199 420.445 38.7497 434.425" fill="#E6E6E6"/>
<path id="Path 443" d="M10.2598 479.087C23.6482 455.406 39.1763 429.086 66.9249 420.673C74.6397 418.342 82.7291 417.507 90.7576 418.213C93.2883 418.432 92.6562 422.331 90.1308 422.113C76.6728 420.997 63.2409 424.549 52.0961 432.173C41.3714 439.47 33.0207 449.617 25.9539 460.375C21.6245 466.966 17.7468 473.835 13.869 480.696C12.6299 482.889 9.00629 481.305 10.2598 479.087Z" fill="#F2F2F2"/>
</g>
<path id="Vector" d="M497.98 120.614C496.568 120 495.432 118.888 494.787 117.489C494.142 116.091 494.034 114.505 494.483 113.033C494.556 112.807 494.602 112.573 494.62 112.337C494.661 111.662 494.483 110.992 494.114 110.426C493.744 109.86 493.202 109.428 492.568 109.194C491.934 108.96 491.241 108.937 490.592 109.128C489.943 109.318 489.373 109.712 488.966 110.252C488.826 110.443 488.709 110.651 488.618 110.87C488.003 112.281 486.891 113.417 485.492 114.062C484.094 114.706 482.507 114.814 481.034 114.365C480.808 114.293 480.574 114.247 480.338 114.229C479.663 114.188 478.993 114.365 478.427 114.735C477.861 115.104 477.428 115.646 477.194 116.28C476.96 116.914 476.937 117.607 477.128 118.255C477.318 118.904 477.712 119.474 478.252 119.881C478.444 120.02 478.651 120.137 478.87 120.229C480.282 120.843 481.419 121.956 482.063 123.354C482.708 124.752 482.816 126.338 482.367 127.81C482.294 128.036 482.248 128.27 482.23 128.506C482.189 129.181 482.367 129.851 482.736 130.417C483.106 130.983 483.648 131.415 484.282 131.649C484.917 131.883 485.609 131.906 486.258 131.716C486.907 131.525 487.477 131.131 487.884 130.591C488.024 130.4 488.141 130.192 488.232 129.973C488.847 128.562 489.96 127.426 491.358 126.781C492.757 126.137 494.343 126.029 495.816 126.478C496.042 126.55 496.276 126.596 496.512 126.614C497.187 126.655 497.857 126.478 498.423 126.109C498.99 125.739 499.422 125.197 499.656 124.563C499.89 123.929 499.913 123.236 499.723 122.588C499.532 121.939 499.138 121.369 498.598 120.963C498.406 120.823 498.199 120.706 497.98 120.614Z" fill="#CBCBCB"/>
<path id="Vector_2" d="M97.98 32.6145C96.5681 31.9998 95.4316 30.8875 94.7868 29.4895C94.142 28.0914 94.034 26.5051 94.4833 25.0326C94.556 24.8069 94.6018 24.5733 94.6198 24.3369C94.6609 23.6622 94.4835 22.9923 94.1139 22.4263C93.7444 21.8603 93.2022 21.4283 92.5679 21.1944C91.9336 20.9605 91.2408 20.937 90.5921 21.1275C89.9434 21.318 89.3733 21.7123 88.9663 22.252C88.8263 22.4435 88.7094 22.6508 88.618 22.8697C88.0031 24.2811 86.8905 25.4172 85.4921 26.0618C84.0936 26.7064 82.5068 26.8143 81.0339 26.3652C80.808 26.2925 80.5744 26.2467 80.3378 26.2288C79.663 26.1877 78.9929 26.3651 78.4267 26.7345C77.8606 27.104 77.4285 27.6459 77.1945 28.28C76.9605 28.9141 76.937 29.6067 77.1275 30.2552C77.3181 30.9037 77.7125 31.4736 78.2523 31.8805C78.4439 32.0205 78.6513 32.1373 78.8702 32.2286C80.2821 32.8433 81.4186 33.9556 82.0633 35.3537C82.7081 36.7517 82.8161 38.338 82.3669 39.8105C82.2942 40.0362 82.2483 40.2697 82.2304 40.5062C82.1893 41.1809 82.3666 41.8508 82.7362 42.4168C83.1058 42.9828 83.6479 43.4148 84.2822 43.6487C84.9165 43.8826 85.6094 43.9061 86.2581 43.7156C86.9068 43.5251 87.4768 43.1307 87.8839 42.591C88.0238 42.3996 88.1407 42.1922 88.2321 41.9734C88.847 40.5619 89.9596 39.4258 91.3581 38.7813C92.7566 38.1367 94.3433 38.0287 95.8163 38.4778C96.0421 38.5505 96.2757 38.5963 96.5123 38.6142C97.1871 38.6553 97.8573 38.478 98.4235 38.1086C98.9896 37.7392 99.4218 37.1972 99.6558 36.5631C99.8898 35.9289 99.9132 35.2363 99.7226 34.5878C99.5321 33.9393 99.1377 33.3694 98.5978 32.9625C98.4062 32.8226 98.1989 32.7058 97.98 32.6145Z" fill="#F1F1F1"/>
<path id="Vector_3" d="M510.247 387.487C515.906 387.487 520.493 382.901 520.493 377.243C520.493 371.586 515.906 367 510.247 367C504.588 367 500 371.586 500 377.243C500 382.901 504.588 387.487 510.247 387.487Z" fill="#F1F1F1"/>
<path id="Vector_4" d="M319.335 21.2896C324.994 21.2896 329.581 16.7034 329.581 11.0462C329.581 5.38887 324.994 0.802734 319.335 0.802734C313.676 0.802734 309.088 5.38887 309.088 11.0462C309.088 16.7034 313.676 21.2896 319.335 21.2896Z" fill="#A134CB"/>
<path id="Vector_5" d="M10.2466 218.487C15.9057 218.487 20.4932 213.901 20.4932 208.243C20.4932 202.586 15.9057 198 10.2466 198C4.58756 198 0 202.586 0 208.243C0 213.901 4.58756 218.487 10.2466 218.487Z" fill="#CBCBCB"/>
<g id="Certificate">
<path id="Vector_6" d="M286.244 443.941C284.589 443.943 283.002 444.602 281.831 445.772C280.66 446.942 280.002 448.529 280 450.184V463.222C280.002 464.877 280.66 466.464 281.831 467.634C283.002 468.804 284.589 469.463 286.244 469.465H386.712C388.367 469.463 389.954 468.804 391.125 467.634C392.296 466.464 392.954 464.877 392.956 463.222V450.184C392.954 448.529 392.296 446.942 391.125 445.772C389.954 444.602 388.367 443.943 386.712 443.941H286.244Z" fill="#E5E5E5"/>
<path id="Vector_7" d="M344.021 435.258C343.399 434.899 342.66 434.802 341.967 434.988C341.273 435.173 340.681 435.627 340.322 436.249L336.589 442.714L332.93 435.485C332.606 434.844 332.04 434.359 331.358 434.135C330.676 433.911 329.932 433.967 329.292 434.292C328.651 434.616 328.165 435.181 327.941 435.863C327.717 436.545 327.774 437.288 328.098 437.929L330.945 443.555H329.902V469.851H343.828V443.555H342.356L345.013 438.956C345.372 438.334 345.469 437.595 345.283 436.902C345.097 436.208 344.643 435.617 344.021 435.258Z" fill="#A134CB"/>
</g>
<g id="Hat">
<path id="Vector_8" d="M189.346 191.789C178.259 184.873 168.28 176.324 159.744 166.432C159.156 165.736 158.803 164.873 158.736 163.965C158.668 163.057 158.889 162.151 159.368 161.376L175.191 135.97C175.791 135.01 176.746 134.327 177.849 134.071C178.951 133.814 180.111 134.006 181.072 134.602L244.861 174.306C245.821 174.905 246.504 175.861 246.76 176.963C247.017 178.065 246.825 179.224 246.228 180.185L230.414 205.576C229.929 206.356 229.206 206.959 228.351 207.296C227.497 207.634 226.557 207.687 225.67 207.449C212.859 204.037 200.62 198.761 189.346 191.789Z" fill="#A134CB"/>
<path id="Vector_9" opacity="0.2" d="M245.503 179.734L242.859 183.98L200.803 174.597C200.02 174.418 199.323 173.97 198.835 173.331L173.488 140.32L175.916 136.421C176.397 135.654 177.161 135.109 178.043 134.904C178.924 134.699 179.851 134.851 180.621 135.327L244.409 175.03C245.176 175.511 245.722 176.275 245.927 177.157C246.132 178.038 245.98 178.964 245.503 179.734Z" fill="black"/>
<path id="Vector_10" d="M202.896 169.085C202.461 168.814 202.078 168.468 201.765 168.062L163.886 118.733C163.35 118.035 163.043 117.19 163.007 116.311C162.97 115.433 163.206 114.564 163.682 113.825C164.158 113.085 164.851 112.511 165.666 112.18C166.48 111.849 167.378 111.777 168.235 111.975L224.658 125.02C225.568 125.233 226.384 125.736 226.983 126.453L268.123 176.066C268.692 176.752 269.031 177.597 269.095 178.485C269.158 179.373 268.943 180.259 268.478 181.018C268.013 181.777 267.322 182.372 266.503 182.72C265.683 183.067 264.775 183.15 263.906 182.956L204.221 169.627C203.752 169.522 203.304 169.339 202.896 169.085Z" fill="#A134CB"/>
<path id="Vector_11" d="M158.725 139.799L157.275 138.896L170.363 117.881L214.581 145.404L213.677 146.851L170.91 120.232L158.725 139.799Z" fill="#3F3D56"/>
<path id="Vector_12" d="M157.097 144.211C158.984 144.211 160.513 142.682 160.513 140.796C160.513 138.911 158.984 137.382 157.097 137.382C155.211 137.382 153.682 138.911 153.682 140.796C153.682 142.682 155.211 144.211 157.097 144.211Z" fill="#3F3D56"/>
</g>
<path id="Up-hand" d="M325.924 269.528C330.928 264.529 322.072 247.558 306.144 231.622C290.216 215.687 273.246 206.821 268.242 211.819C263.238 216.818 272.094 233.789 288.022 249.725C303.95 265.66 320.919 274.526 325.924 269.528Z" fill="#2F2E41"/>
<path id="Down-hand" d="M466.72 344.175C472.531 340.141 466.822 321.871 453.969 303.366C441.116 284.862 425.987 273.131 420.176 277.165C414.365 281.198 420.074 299.469 432.926 317.973C445.779 336.478 460.909 348.208 466.72 344.175Z" fill="#2F2E41"/>
<g id="Body">
<path id="Vector_13" d="M367.278 355.38C407.898 355.38 440.827 322.461 440.827 281.854C440.827 241.246 407.898 208.328 367.278 208.328C326.658 208.328 293.729 241.246 293.729 281.854C293.729 322.461 326.658 355.38 367.278 355.38Z" fill="#2F2E41"/>
<path id="Vector_14" d="M418.267 319.978L399.201 331.626L420.077 365.774L439.143 354.126L418.267 319.978Z" fill="#2F2E41"/>
<path id="Vector_15" d="M380.136 343.274L361.07 354.922L381.946 389.071L401.012 377.422L380.136 343.274Z" fill="#2F2E41"/>
<path id="Vector_16" d="M427.139 370.186C435.914 364.825 441.397 357.813 439.386 354.523C437.375 351.234 428.631 352.913 419.857 358.274C411.082 363.635 405.599 370.648 407.61 373.937C409.621 377.227 418.364 375.547 427.139 370.186Z" fill="#2F2E41"/>
<path id="Vector_17" d="M388.523 392.688C397.297 387.327 402.78 380.315 400.769 377.025C398.758 373.736 390.015 375.415 381.24 380.776C372.466 386.137 366.983 393.15 368.993 396.439C371.004 399.728 379.748 398.049 388.523 392.688Z" fill="#2F2E41"/>
<path id="Vector_18" d="M312.387 303.109C307.62 310.916 313.971 321.478 326.572 326.7C339.173 331.921 353.252 329.825 358.019 322.018L358.035 321.99C362.79 314.178 353.556 308.333 340.95 303.119C328.344 297.905 317.141 295.296 312.387 303.109Z" fill="white"/>
</g>
<g id="Eye">
<path id="Vector_19" d="M344.756 286.32C358.639 286.32 369.893 275.069 369.893 261.191C369.893 247.312 358.639 236.062 344.756 236.062C330.873 236.062 319.619 247.312 319.619 261.191C319.619 275.069 330.873 286.32 344.756 286.32Z" fill="white"/>
<path id="Vector_20" d="M336.217 261.031C340.845 261.031 344.596 257.281 344.596 252.655C344.596 248.029 340.845 244.278 336.217 244.278C331.59 244.278 327.838 248.029 327.838 252.655C327.838 257.281 331.59 261.031 336.217 261.031Z" fill="#3F3D56"/>
</g>
<path id="Cap" d="M342.6 189.533C349.167 163.093 378.156 147.533 407.349 154.78C436.542 162.026 454.884 189.335 448.316 215.775C441.749 242.215 419.961 242.3 390.768 235.054C361.575 227.807 336.032 215.973 342.6 189.533Z" fill="#E6E6E6"/>
<path id="Vector_21" d="M522.355 472H0.644883C0.473849 472 0.30982 471.842 0.188881 471.561C0.0679423 471.279 0 470.898 0 470.5C0 470.102 0.0679423 469.721 0.188881 469.439C0.30982 469.158 0.473849 469 0.644883 469H522.355C522.526 469 522.69 469.158 522.811 469.439C522.932 469.721 523 470.102 523 470.5C523 470.898 522.932 471.279 522.811 471.561C522.69 471.842 522.526 472 522.355 472Z" fill="#CBCBCB"/>
</g>
</svg>
