<svg width="693" height="528" viewBox="0 0 693 528" fill="none" xmlns="http://www.w3.org/2000/svg">
<g id="web 1" clip-path="url(#clip0_270_294)">
<path id="Vector" d="M693 283.5V505.31C692.993 511.326 690.6 517.093 686.346 521.346C682.093 525.6 676.325 527.993 670.31 528H500.17L501.75 526L691 286.04L693 283.5Z" fill="#F2F2F2"/>
<path id="Vector_2" d="M270.812 205.368H75.443C73.8421 205.368 72.3068 206.004 71.1749 207.136C70.0429 208.268 69.407 209.803 69.407 211.404C69.407 213.005 70.0429 214.54 71.1749 215.672C72.3068 216.804 73.8421 217.44 75.443 217.44H270.812C272.413 217.44 273.948 216.804 275.08 215.672C276.212 214.54 276.848 213.005 276.848 211.404C276.848 209.803 276.212 208.268 275.08 207.136C273.948 206.004 272.413 205.368 270.812 205.368Z" fill="#E6E6E6"/>
<path id="Vector_3" d="M136.017 171.523H75.443C73.8421 171.523 72.3068 172.159 71.1749 173.291C70.0429 174.423 69.407 175.959 69.407 177.559C69.407 179.16 70.0429 180.696 71.1749 181.828C72.3068 182.96 73.8421 183.595 75.443 183.595H136.018C137.618 183.595 139.154 182.96 140.286 181.828C141.418 180.696 142.054 179.16 142.054 177.559C142.054 175.959 141.418 174.423 140.286 173.291C139.154 172.159 137.618 171.523 136.017 171.523Z" fill="#E6E6E6"/>
<path id="Vector_4" d="M670.31 0H22.69C16.6745 0.0072432 10.9074 2.40012 6.65375 6.65375C2.40012 10.9074 0.0072432 16.6745 0 22.69V505.31C0.0072432 511.326 2.40012 517.093 6.65375 521.346C10.9074 525.6 16.6745 527.993 22.69 528H670.31C676.326 527.993 682.093 525.6 686.346 521.346C690.6 517.093 692.993 511.326 693 505.31V22.69C692.993 16.6745 690.6 10.9074 686.346 6.65375C682.093 2.40012 676.326 0.0072432 670.31 0ZM691 505.31C691 508.027 690.465 510.717 689.425 513.228C688.385 515.738 686.861 518.019 684.94 519.94C683.019 521.861 680.738 523.385 678.228 524.425C675.717 525.465 673.027 526 670.31 526H22.69C17.2027 526 11.9401 523.82 8.05997 519.94C4.17984 516.06 2 510.797 2 505.31V157.676C2 116.388 18.4015 76.7911 47.5963 47.5963C76.7911 18.4015 116.388 2 157.676 2H670.31C673.027 2 675.717 2.53517 678.228 3.57494C680.738 4.61471 683.019 6.13872 684.94 8.05997C686.861 9.98121 688.385 12.2621 689.425 14.7723C690.465 17.2825 691 19.973 691 22.69V505.31Z" fill="#E6E6E6"/>
<path id="Vector_5" d="M629.891 87.2686H63.16C62.8948 87.2686 62.6404 87.1632 62.4529 86.9757C62.2654 86.7881 62.16 86.5338 62.16 86.2686C62.16 86.0033 62.2654 85.749 62.4529 85.5615C62.6404 85.3739 62.8948 85.2686 63.16 85.2686H629.891C630.156 85.2686 630.41 85.3739 630.598 85.5615C630.785 85.749 630.891 86.0033 630.891 86.2686C630.891 86.5338 630.785 86.7881 630.598 86.9757C630.41 87.1632 630.156 87.2686 629.891 87.2686Z" fill="#E6E6E6"/>
<path id="Vector_6" d="M91.5148 57.2481C96.1853 57.2481 99.9715 53.3776 99.9715 48.6031C99.9715 43.8285 96.1853 39.958 91.5148 39.958C86.8444 39.958 83.0582 43.8285 83.0582 48.6031C83.0582 53.3776 86.8444 57.2481 91.5148 57.2481Z" fill="#E6E6E6"/>
<path id="Vector_7" d="M120.729 57.2481C125.399 57.2481 129.185 53.3776 129.185 48.6031C129.185 43.8285 125.399 39.958 120.729 39.958C116.058 39.958 112.272 43.8285 112.272 48.6031C112.272 53.3776 116.058 57.2481 120.729 57.2481Z" fill="#E6E6E6"/>
<path id="Vector_8" d="M149.942 57.2481C154.613 57.2481 158.399 53.3776 158.399 48.6031C158.399 43.8285 154.613 39.958 149.942 39.958C145.272 39.958 141.486 43.8285 141.486 48.6031C141.486 53.3776 145.272 57.2481 149.942 57.2481Z" fill="#E6E6E6"/>
<path id="Vector_9" d="M183.254 55.4357C183.121 55.4359 182.989 55.4093 182.866 55.3577C182.743 55.306 182.632 55.2303 182.539 55.1349L176.833 49.3019C176.65 49.1151 176.548 48.8641 176.548 48.6027C176.548 48.3413 176.65 48.0902 176.833 47.9034L182.539 42.0709C182.63 41.9756 182.74 41.8993 182.861 41.8465C182.982 41.7937 183.113 41.7654 183.245 41.7633C183.377 41.7612 183.508 41.7853 183.631 41.8342C183.754 41.8832 183.865 41.9559 183.96 42.0483C184.054 42.1407 184.13 42.2509 184.181 42.3725C184.233 42.4942 184.26 42.6249 184.261 42.757C184.261 42.8891 184.236 43.0201 184.186 43.1424C184.136 43.2647 184.062 43.3758 183.969 43.4694L178.947 48.6027L183.969 53.7365C184.106 53.8772 184.199 54.0554 184.236 54.2487C184.273 54.4421 184.252 54.642 184.175 54.8234C184.099 55.0049 183.971 55.1597 183.807 55.2687C183.643 55.3776 183.451 55.4357 183.254 55.4357Z" fill="#E6E6E6"/>
<path id="Vector_10" d="M192.842 55.4359C192.645 55.4359 192.453 55.3778 192.289 55.2689C192.125 55.16 191.997 55.0051 191.921 54.8237C191.844 54.6422 191.823 54.4423 191.86 54.249C191.897 54.0556 191.99 53.8774 192.127 53.7367L197.149 48.6029L192.127 43.4696C191.945 43.2794 191.845 43.0249 191.849 42.7614C191.853 42.4979 191.961 42.2467 192.15 42.0625C192.338 41.8782 192.592 41.7757 192.855 41.7774C193.119 41.779 193.371 41.8846 193.557 42.0712L199.263 47.9037C199.445 48.0905 199.548 48.3415 199.548 48.6029C199.548 48.8643 199.445 49.1153 199.263 49.3021L193.557 55.1351C193.464 55.2305 193.353 55.3062 193.23 55.3579C193.107 55.4095 192.975 55.4361 192.842 55.4359Z" fill="#E6E6E6"/>
<path id="Vector_11" d="M579.352 40.959H568.742C568.454 40.9589 568.17 41.0155 567.904 41.1255C567.638 41.2355 567.397 41.3968 567.193 41.6002C566.99 41.8036 566.829 42.0451 566.719 42.3108C566.608 42.5765 566.552 42.8614 566.552 43.149V53.769C566.552 54.0566 566.608 54.3414 566.719 54.6071C566.829 54.8729 566.99 55.1144 567.193 55.3177C567.397 55.5211 567.638 55.6824 567.904 55.7925C568.17 55.9025 568.454 55.9591 568.742 55.959H579.352C579.934 55.9595 580.492 55.7293 580.905 55.3188C581.317 54.9082 581.55 54.3509 581.552 53.769V43.149C581.55 42.5671 581.317 42.0097 580.905 41.5992C580.492 41.1887 579.934 40.9584 579.352 40.959Z" fill="#E6E6E6"/>
<path id="Vector_12" d="M553.352 40.959H542.742C542.454 40.9589 542.17 41.0155 541.904 41.1255C541.638 41.2355 541.397 41.3968 541.193 41.6002C540.99 41.8036 540.829 42.0451 540.719 42.3108C540.608 42.5765 540.552 42.8614 540.552 43.149V53.769C540.552 54.0566 540.608 54.3414 540.719 54.6071C540.829 54.8729 540.99 55.1144 541.193 55.3177C541.397 55.5211 541.638 55.6824 541.904 55.7925C542.17 55.9025 542.454 55.9591 542.742 55.959H553.352C553.934 55.9595 554.492 55.7293 554.905 55.3188C555.317 54.9082 555.55 54.3509 555.552 53.769V43.149C555.55 42.5671 555.317 42.0097 554.905 41.5992C554.492 41.1887 553.934 40.9584 553.352 40.959Z" fill="#E6E6E6"/>
<path id="Vector_13" d="M603.852 41.459H593.242C592.954 41.4589 592.67 41.5155 592.404 41.6255C592.138 41.7355 591.897 41.8968 591.693 42.1002C591.49 42.3036 591.329 42.5451 591.219 42.8108C591.108 43.0765 591.052 43.3614 591.052 43.649V54.269C591.052 54.5566 591.108 54.8414 591.219 55.1071C591.329 55.3729 591.49 55.6144 591.693 55.8177C591.897 56.0211 592.138 56.1824 592.404 56.2925C592.67 56.4025 592.954 56.4591 593.242 56.459H603.852C604.434 56.4595 604.992 56.2293 605.405 55.8188C605.817 55.4082 606.05 54.8509 606.052 54.269V43.649C606.05 43.0671 605.817 42.5097 605.405 42.0992C604.992 41.6887 604.434 41.4584 603.852 41.459Z" fill="#E6E6E6"/>
<path id="Vector_14" d="M388.93 45.499H304.12C303.412 45.499 302.733 45.7803 302.232 46.2811C301.732 46.7818 301.45 47.4609 301.45 48.169C301.45 48.8771 301.732 49.5563 302.232 50.057C302.733 50.5577 303.412 50.839 304.12 50.839H388.93C389.638 50.839 390.318 50.5577 390.818 50.057C391.319 49.5563 391.6 48.8771 391.6 48.169C391.6 47.4609 391.319 46.7818 390.818 46.2811C390.318 45.7803 389.638 45.499 388.93 45.499Z" fill="#E6E6E6"/>
<g id="CSS">
<path id="Vector_15" d="M161.607 410.446L110.89 408.843C103.856 408.621 95.9459 408.632 90.9287 412.267C85.2344 416.393 86.0966 423.703 90.8244 428.444C95.5522 433.185 103.101 435.893 110.511 438.096C149.875 449.796 193.439 452.171 235.74 449.524C278.04 446.876 319.47 439.392 360.695 431.933C364.605 431.226 369.037 430.208 370.631 427.487C372.174 424.855 370.155 421.68 367.02 419.979C363.885 418.278 359.911 417.705 356.077 417.198C286.63 408.072 216.431 406.07 146.577 411.222" fill="#A134CB"/>
<path id="Vector_16" d="M252.73 371.44V359.44C244.022 359.563 212.86 359.351 204.73 359.44C204.125 401.381 200.417 393.165 234.778 393.329C236.357 393.334 237.87 393.966 238.985 395.084C240.101 396.202 240.728 397.716 240.73 399.295V399.475C240.73 401.057 240.102 402.574 238.983 403.693C237.864 404.811 236.347 405.44 234.765 405.44H204.73V417.44H252.73C252.797 417.4 252.681 405.853 252.73 405.44C254.76 370.675 250.744 383.178 221.564 381.784C220.259 381.717 219.029 381.151 218.129 380.203C217.229 379.255 216.728 377.997 216.73 376.69V376.54C216.73 375.187 217.267 373.89 218.224 372.934C219.18 371.977 220.477 371.44 221.83 371.44H252.73Z" fill="#3F3D56"/>
<path id="Vector_17" d="M311.73 371.44V359.44C303.022 359.563 271.859 359.351 263.73 359.44C263.12 401.745 259.352 393.019 294.682 393.335C296.026 393.348 297.309 393.892 298.255 394.847C299.2 395.801 299.73 397.091 299.73 398.434C299.73 399.064 299.73 399.71 299.73 400.341C299.73 401.011 299.598 401.674 299.342 402.293C299.085 402.911 298.71 403.474 298.236 403.947C297.763 404.42 297.2 404.796 296.582 405.052C295.963 405.308 295.3 405.44 294.63 405.44H263.73V417.44H311.73C311.797 417.4 311.681 405.853 311.73 405.44C313.76 370.675 309.744 383.178 280.564 381.784C279.259 381.717 278.029 381.151 277.129 380.203C276.229 379.255 275.728 377.997 275.73 376.689V376.54C275.73 375.187 276.267 373.89 277.224 372.934C278.18 371.977 279.477 371.44 280.83 371.44H311.73Z" fill="#3F3D56"/>
<path id="Vector_18" d="M190.73 371.44V359.44H142.73C142.696 370.143 142.754 398.472 142.73 409.44C133.321 425.369 186.772 414.34 190.733 417.444C190.73 417.44 190.73 405.44 190.73 405.44C154.209 405.249 153.291 412.086 154.466 379.01C154.537 376.979 155.393 375.055 156.854 373.643C158.315 372.231 160.268 371.441 162.3 371.439C172.858 371.44 190.73 371.44 190.73 371.44Z" fill="#3F3D56"/>
</g>
<g id="HTML">
<path id="Vector_19" d="M285.607 267.112L234.89 265.776C227.856 265.591 219.946 265.6 214.929 268.63C209.234 272.069 210.097 278.163 214.824 282.115C219.552 286.067 227.101 288.325 234.511 290.16C273.875 299.913 317.439 301.893 359.74 299.686C402.04 297.48 443.47 291.241 484.695 285.024C488.605 284.434 493.037 283.585 494.631 281.317C496.174 279.123 494.155 276.477 491.02 275.059C487.885 273.641 483.911 273.163 480.077 272.741C410.512 265.131 340.425 263.464 270.577 267.759" fill="#A134CB"/>
<path id="Vector_20" d="M276.73 214.44C275.913 232.967 282.722 238.798 259.229 236.438C257.642 225.386 265.691 210.048 247.23 213.942C250.928 221.96 236.927 282.786 259.226 271.937C260.478 253.662 252.224 245.646 276.731 248.442C278.696 259.739 269.523 276.364 288.729 272.438C285.031 264.417 299.032 203.596 276.73 214.44Z" fill="#3F3D56"/>
<path id="Vector_21" d="M399.73 214.44C401.377 215.457 384.639 233.164 384.278 234.615C383.776 233.377 367.801 216.052 369.73 214.441C347.5 203.456 361.355 264.636 357.726 272.443C357.73 272.44 369.73 272.44 369.73 272.44V234.442C386.597 257.192 383.465 253.363 399.73 233.325L399.73 272.44C421.959 283.429 408.106 222.241 411.734 214.437C411.73 214.44 399.73 214.44 399.73 214.44Z" fill="#3F3D56"/>
<path id="Vector_22" d="M346.73 214.44H298.73C295.909 231.262 305.235 225.62 316.731 226.44L316.73 272.44H328.73V226.44C340.173 225.662 349.586 231.188 346.73 214.44Z" fill="#3F3D56"/>
<path id="Vector_23" d="M433.73 260.44C430.958 245.232 430.958 229.648 433.73 214.44H421.73C421.799 222.043 421.708 252.722 421.715 266.752C421.715 268.266 422.315 269.718 423.385 270.789C424.455 271.861 425.907 272.463 427.421 272.464C439.511 272.48 462.591 272.391 469.73 272.44L469.73 260.44H433.73Z" fill="#3F3D56"/>
</g>
<path id="Vector_24" d="M127.181 262.44H78.407C76.02 262.44 73.7308 263.388 72.043 265.076C70.3552 266.764 69.407 269.053 69.407 271.44C69.407 273.827 70.3552 276.116 72.043 277.804C73.7308 279.492 76.02 280.44 78.407 280.44H127.181C129.568 280.44 131.857 279.492 133.545 277.804C135.233 276.116 136.181 273.827 136.181 271.44C136.181 269.053 135.233 266.764 133.545 265.076C131.857 263.388 129.568 262.44 127.181 262.44Z" fill="#E6E6E6"/>
<path id="Vector_25" d="M569.392 517.568L559.491 517.567L554.781 479.377L569.394 479.378L569.392 517.568Z" fill="#FFB6B6"/>
<path id="Vector_26" d="M569.741 527.896L539.294 527.895V527.51C539.294 524.367 540.543 521.353 542.765 519.131C544.987 516.908 548.002 515.66 551.145 515.66L556.707 511.44L567.083 515.66L569.741 515.66L569.741 527.896Z" fill="#2F2E41"/>
<path id="Vector_27" d="M604.392 517.568L594.491 517.567L589.781 479.377L604.394 479.378L604.392 517.568Z" fill="#FFB6B6"/>
<path id="Vector_28" d="M604.741 527.896L574.294 527.895V527.51C574.294 524.367 575.543 521.353 577.765 519.131C579.987 516.908 583.002 515.66 586.145 515.66L591.707 511.44L602.083 515.66L604.741 515.66L604.741 527.896Z" fill="#2F2E41"/>
<path id="Vector_29" d="M544.739 309.48C544.739 309.48 535.213 338.738 536.972 342.589C538.73 346.44 541.73 343.44 538.73 346.44C535.73 349.44 533.111 346.251 535.921 351.345C538.73 356.44 542.986 398.379 544.858 400.41C546.73 402.44 549.304 402.494 547.017 404.467C544.73 406.44 541.73 402.44 544.73 406.44C547.73 410.44 555.691 502.715 555.691 502.715H571.242C571.242 502.715 575.115 498.251 572.922 495.345C570.73 492.44 573.115 491.32 572.922 489.38C572.73 487.44 573.459 483.257 573.595 481.348C573.73 479.44 576.358 433.971 570.044 407.705L581.558 357.693L587.314 418.14C587.314 418.14 580.899 468.841 587.314 485.141C587.314 485.141 582.142 489.448 584.436 491.944C586.73 494.44 588.73 492.44 586.73 494.44C584.73 496.44 589.73 503.44 589.73 503.44L606.73 502.44L616.352 407.705C616.352 407.705 617.974 397.826 616.352 396.133C614.73 394.44 614.73 400.44 614.73 394.44V386.44C614.73 386.44 621.981 337.235 621.855 334.337C621.73 331.44 609.73 310.44 609.73 310.44L544.739 309.48Z" fill="#2F2E41"/>
<path id="Vector_30" d="M595.019 191.147L570.196 189.44L562.768 201.152L544.88 208.425V266.119C546.741 271.706 547.703 277.552 547.73 283.44C547.662 294.934 544.707 308.475 545.73 311.44C555.73 340.44 610.73 311.44 610.73 311.44L609.73 280.44L611.087 210.381L599.848 201.417L595.019 191.147Z" fill="#E6E6E6"/>
<path id="Vector_31" d="M543.733 322.005L542.021 303.763L531.464 303.287L533.96 322.508C533.32 323.453 532.956 324.557 532.909 325.697C532.862 326.837 533.134 327.968 533.694 328.962C534.254 329.956 535.08 330.773 536.08 331.323C537.08 331.873 538.213 332.134 539.353 332.075C540.492 332.016 541.592 331.641 542.53 330.991C543.468 330.341 544.206 329.442 544.661 328.396C545.116 327.35 545.27 326.197 545.106 325.068C544.942 323.939 544.466 322.878 543.733 322.005Z" fill="#FFB6B6"/>
<path id="Vector_32" d="M548.928 206.886L548.635 206.936C545.913 207.397 543.344 208.515 541.152 210.193C538.959 211.871 537.208 214.057 536.051 216.564C533.027 223.102 523.211 266.081 527.514 272.562C530.852 277.589 530.041 276.608 528.472 280.4C526.903 284.192 524.376 280.146 526.447 286.164C528.518 292.182 530.794 291.323 528.871 293.648C526.949 295.974 524.977 295.518 526.847 299.412C528.716 303.306 528.412 304.621 528.766 306.087C529.119 307.554 528.812 317.869 528.812 317.869C528.812 317.869 540.088 317.014 545.7 319.696C545.7 319.696 542.569 309.278 544.339 307.61C546.109 305.942 548.233 305.741 546.717 303.313C545.201 300.885 541.763 300.783 545.505 299.571C549.247 298.359 548.042 276.615 548.042 276.615C554.205 260.475 551.77 233.927 548.928 206.886Z" fill="#E6E6E6"/>
<path id="Vector_33" d="M616.922 323.307L617.711 305.002L628.231 303.994L626.708 323.317C627.395 324.228 627.814 325.312 627.919 326.449C628.023 327.585 627.809 328.728 627.299 329.748C626.79 330.769 626.006 331.628 625.035 332.228C624.064 332.827 622.946 333.145 621.805 333.143C620.664 333.142 619.546 332.823 618.576 332.221C617.607 331.619 616.825 330.759 616.317 329.737C615.81 328.715 615.598 327.572 615.705 326.436C615.812 325.3 616.233 324.216 616.922 323.307Z" fill="#FFB6B6"/>
<path id="Vector_34" d="M605.926 208.597L606.221 208.631C608.963 208.955 611.585 209.942 613.859 211.507C616.134 213.072 617.993 215.167 619.275 217.613C622.625 223.99 633.22 267.181 630.626 273.109C628.207 278.636 628.307 277.277 630.065 280.985C631.823 284.693 634.142 280.524 632.378 286.639C630.613 292.754 628.297 292.011 630.334 294.237C632.371 296.462 634.318 295.907 632.647 299.891C630.977 303.874 631.346 305.172 631.067 306.654C630.788 308.137 631.616 318.423 631.616 318.423C631.616 318.423 620.311 318.138 614.841 321.1C614.841 321.1 617.443 310.537 615.591 308.961C613.738 307.384 611.607 307.29 612.999 304.789C614.39 302.288 617.819 302.012 614.021 300.991C610.222 299.969 610.329 278.192 610.329 278.192L605.926 208.597Z" fill="#E6E6E6"/>
<g id="Head">
<path id="Vector_35" d="M583.217 185.773C593.911 185.773 602.579 177.104 602.579 166.411C602.579 155.717 593.911 147.048 583.217 147.048C572.524 147.048 563.855 155.717 563.855 166.411C563.855 177.104 572.524 185.773 583.217 185.773Z" fill="#FFB6B6"/>
<path id="Vector_36" d="M596.692 182.984C599.385 180.877 599.646 176.859 601.944 174.327C605.786 170.094 607.591 165.539 605.579 160.522C603.799 156.085 604.177 150.631 600.343 147.775C602.226 147.093 602.669 145.677 601.008 145.651C599.887 145.634 595.71 147.775 597.72 145.107C599.73 142.44 595.926 143.493 596.177 142.401C596.429 141.309 598.042 140.704 598.754 141.57C598.153 140.956 597.42 140.488 596.611 140.201C595.801 139.913 594.937 139.815 594.084 139.912C593.23 140.01 592.411 140.301 591.687 140.764C590.963 141.226 590.355 141.848 589.908 142.582C587.644 139.188 585.24 136.852 581.774 139.006C578.371 141.122 578.415 143.736 574.756 143.108C573.035 142.813 572.872 146.063 571.697 147.354C571.154 148.04 570.447 148.579 569.642 148.922C568.837 149.266 567.959 149.402 567.088 149.319C565.373 148.995 564.061 146.858 565.022 145.4L560.979 154.624L559.35 152.625C556.761 154.312 557.611 158.715 560.217 160.376C562.824 162.037 566.21 161.682 569.212 160.946C572.824 160.06 576.554 159.75 580.263 160.029C585.93 160.83 589.876 167.604 587.778 172.928C589.955 170.79 593.982 172.564 595.11 175.399C596.238 178.234 595.411 181.428 594.575 184.363" fill="#2F2E41"/>
</g>
</g>
<defs>
<clipPath id="clip0_270_294">
<rect width="693" height="528" fill="white"/>
</clipPath>
</defs>
</svg>
